<svg xmlns="http://www.w3.org/2000/svg" height="512pt" viewBox="-6 0 512 512.001" width="512pt" fill="#fff"><path d="M433.434 71.066 384 120.5V42.668C383.973 19.113 364.887.028 341.332 0H42.668C19.113.027.028 19.113 0 42.668v34.133c0 4.71 3.82 8.531 8.535 8.531h59.73v375.469c.032 28.265 22.938 51.172 51.204 51.199h298.664c28.265-.027 51.172-22.934 51.199-51.2v-25.6c0-4.712-3.82-8.532-8.531-8.532H384V229.965l104.168-104.168c15.113-15.113 15.113-39.617 0-54.73-15.113-15.114-39.621-15.114-54.734 0zm-365.168-2.8h-51.2V42.668c0-14.14 11.461-25.602 25.602-25.602 14.137 0 25.598 11.461 25.598 25.602zm85.336 366.933v25.602c0 18.851-15.282 34.133-34.133 34.133S85.332 479.652 85.332 460.8V42.668a42.216 42.216 0 0 0-8.754-25.602h264.754c14.14 0 25.602 11.461 25.602 25.602v94.898L249.969 254.531c-.086.086-.114.196-.188.282a8.413 8.413 0 0 0-1.554 2.347c0 .094-.114.18-.153.281l-.07.13-25.598 68.265a8.529 8.529 0 0 0 4.977 10.992c1.941.73 4.082.73 6.02 0l68.269-25.601.125-.067c.094 0 .18-.105.273-.156a8.344 8.344 0 0 0 2.348-1.55c.086-.079.195-.106.281-.188l62.235-62.235v179.633H162.133c-4.711.004-8.531 3.824-8.531 8.535zm105.734-159.222 23.894 23.894-38.273 14.344zm192.93 167.757v17.067c0 18.851-15.282 34.133-34.133 34.133H157.602a51.023 51.023 0 0 0 13.066-34.133v-17.067zm-153.598-152.57-30.602-30.598 128.735-128.734 30.601 30.602zm140.8-140.797-30.6-30.601 13.53-13.536L453 136.832zm36.634-36.633-11.036 11.032-30.597-30.602L445.5 83.133c8.586-8.317 22.285-8.102 30.602.48 8.128 8.395 8.128 21.727 0 30.121zm0 0"/><path d="M119.469 375.465h59.73v17.07h-59.73zM119.469 307.2H204.8v17.066h-85.332zM119.469 238.934h76.797V256h-76.797zM153.602 170.668h136.53v17.066h-136.53zM213.332 238.934h17.07V256h-17.07zM119.469 170.668h17.066v17.066H119.47zM298.668 375.465h17.066v17.07h-17.066zM196.266 375.465h85.336v17.07h-85.336zM221.867 34.133h17.067v17.066h-17.067zM221.867 119.465h17.067v17.07h-17.067zM188.168 55.172l12.066-12.07 12.067 12.07-12.067 12.066zM248.492 115.5l12.067-12.066 12.07 12.066-12.07 12.07zM179.2 76.8h17.066v17.067h-17.067zM264.535 76.8h17.067v17.067h-17.067zM188.16 115.504l12.067-12.07 12.07 12.07-12.07 12.066zM248.5 55.168l12.066-12.066 12.067 12.066-12.067 12.07zm0 0"/></svg>