<svg xmlns="http://www.w3.org/2000/svg" width="px" height="px" viewBox="0 0 256 256"><path style="stroke:none;fill-rule:nonzero;fill:#fff;fill-opacity:1" d="M177.336 90.406H165.98a39.144 39.144 0 0 0-2.64-6.375L171.37 76a5.28 5.28 0 0 0 1.555-3.758 5.28 5.28 0 0 0-1.555-3.758l-9.453-9.449a5.316 5.316 0 0 0-7.516 0l-8.027 8.028a39.664 39.664 0 0 0-6.379-2.637v-11.36a5.318 5.318 0 0 0-5.312-5.312h-13.368a5.318 5.318 0 0 0-5.312 5.312v11.36a39.664 39.664 0 0 0-6.379 2.636l-8.031-8.027a5.316 5.316 0 0 0-7.516 0l-9.45 9.45a5.273 5.273 0 0 0-1.554 3.757A5.28 5.28 0 0 0 84.63 76l8.031 8.031a39.144 39.144 0 0 0-2.64 6.375H78.664a5.32 5.32 0 0 0-5.316 5.317v13.363a5.319 5.319 0 0 0 5.316 5.312H90.02a39.329 39.329 0 0 0 2.64 6.38l-8.031 8.03a5.324 5.324 0 0 0 0 7.516l9.45 9.45a5.32 5.32 0 0 0 7.515 0l8.031-8.032a39.329 39.329 0 0 0 6.379 2.64v11.356a5.319 5.319 0 0 0 5.312 5.317h13.368a5.319 5.319 0 0 0 5.312-5.317v-11.355a39.329 39.329 0 0 0 6.379-2.64l8.027 8.03a5.32 5.32 0 0 0 7.516 0l9.453-9.449a5.28 5.28 0 0 0 1.555-3.758c0-1.421-.551-2.754-1.555-3.757l-8.031-8.032a40.04 40.04 0 0 0 2.64-6.379h11.356a5.321 5.321 0 0 0 5.316-5.312V95.723a5.322 5.322 0 0 0-5.316-5.317Zm-2.184 16.492h-12.03a3.748 3.748 0 0 0-3.65 2.899 32.097 32.097 0 0 1-3.992 9.633 3.752 3.752 0 0 0 .536 4.629l8.504 8.507-6.356 6.36-8.508-8.508a3.746 3.746 0 0 0-4.629-.531 32.188 32.188 0 0 1-9.632 3.988 3.748 3.748 0 0 0-2.899 3.652v12.028h-8.992v-12.028c0-1.742-1.2-3.257-2.895-3.652a32.105 32.105 0 0 1-9.632-3.988 3.752 3.752 0 0 0-4.633.531l-8.504 8.508-6.36-6.36 8.504-8.507a3.747 3.747 0 0 0 .536-4.63 31.987 31.987 0 0 1-3.989-9.632 3.756 3.756 0 0 0-3.652-2.899H80.848v-8.992h12.03c1.743 0 3.255-1.199 3.653-2.894a31.987 31.987 0 0 1 3.989-9.633c.918-1.48.699-3.399-.536-4.633l-8.504-8.504 6.36-6.36 8.504 8.509a3.752 3.752 0 0 0 4.633.53 32.105 32.105 0 0 1 9.632-3.987 3.749 3.749 0 0 0 2.895-3.653V55.254h8.992V67.28c0 1.742 1.2 3.258 2.899 3.653a32.188 32.188 0 0 1 9.632 3.988c1.48.918 3.399.7 4.63-.531l8.507-8.508 6.356 6.36-8.504 8.503a3.758 3.758 0 0 0-.536 4.633 32.097 32.097 0 0 1 3.993 9.633 3.744 3.744 0 0 0 3.648 2.894h12.031Zm0 0"/><path style="stroke:none;fill-rule:nonzero;fill:#fff;fill-opacity:1" d="M128 82.313c-11.078 0-20.09 9.015-20.09 20.09 0 11.077 9.012 20.09 20.09 20.09s20.09-9.013 20.09-20.09c0-11.075-9.012-20.09-20.09-20.09Zm0 32.68c-6.941 0-12.59-5.645-12.59-12.59 0-6.942 5.649-12.59 12.59-12.59s12.59 5.648 12.59 12.59c0 6.945-5.649 12.59-12.59 12.59Zm-86.215-16.34H29.348a3.748 3.748 0 0 0-3.75 3.75 3.746 3.746 0 0 0 3.75 3.75h12.437a3.746 3.746 0 0 0 3.75-3.75c0-2.071-1.676-3.75-3.75-3.75Zm184.867 0h-12.437a3.748 3.748 0 0 0-3.75 3.75 3.746 3.746 0 0 0 3.75 3.75h12.437a3.746 3.746 0 0 0 3.75-3.75c0-2.071-1.675-3.75-3.75-3.75ZM69.688 160.714a3.746 3.746 0 0 0-5.301 0l-8.797 8.797a3.751 3.751 0 0 0 0 5.304 3.753 3.753 0 0 0 5.3 0l8.797-8.796a3.751 3.751 0 0 0 0-5.305ZM200.41 29.992a3.758 3.758 0 0 0-5.305 0l-8.796 8.797a3.751 3.751 0 0 0 5.304 5.305l8.797-8.797a3.751 3.751 0 0 0 0-5.305ZM128 0c-2.07 0-3.75 1.68-3.75 3.75v12.441a3.751 3.751 0 0 0 7.5 0V3.75c0-2.07-1.68-3.75-3.75-3.75Zm72.41 169.512-8.797-8.797a3.75 3.75 0 0 0-5.254.05 3.75 3.75 0 0 0-.05 5.255l8.796 8.796a3.75 3.75 0 0 0 5.305-5.305ZM69.688 38.789l-8.797-8.797a3.753 3.753 0 0 0-5.301 0 3.751 3.751 0 0 0 0 5.305l8.797 8.797a3.746 3.746 0 0 0 5.3 0 3.751 3.751 0 0 0 0-5.305Zm133.125 54.43C198.776 58.78 171.48 31.48 137.202 27.3a3.751 3.751 0 0 0-.906 7.445c31.129 3.793 55.418 28.2 59.066 59.344a3.75 3.75 0 1 0 7.45-.871Zm0 0"/><path style="stroke:none;fill-rule:nonzero;fill:#fff;fill-opacity:1" d="M199.48 107.434a3.752 3.752 0 0 0-2.77.754 3.765 3.765 0 0 0-1.42 2.496c-2.556 20.195-13.954 38.011-31.27 48.882-7.47 4.688-11.922 12.711-11.922 21.461v15.434h-48.192v-15.777c0-8.47-4.43-16.473-11.554-20.887-20.153-12.473-32.188-34.05-32.188-57.723 0-34.176 25.602-63.117 59.547-67.324a3.75 3.75 0 1 0-.922-7.441c-37.508 4.644-66.125 36.898-66.125 74.765 0 13.067 3.398 25.942 9.828 37.23a75.854 75.854 0 0 0 25.91 26.872c4.934 3.054 8 8.613 8 14.508v16.324c-3.812 1.324-6.562 4.945-6.562 9.203v5.344c0 2.265.781 4.347 2.082 6.004a9.676 9.676 0 0 0-2.082 6v5.343c0 5.38 4.375 9.75 9.75 9.75h11.789v8.48c0 4.891 3.98 8.868 8.871 8.868h15.496c4.89 0 8.871-3.977 8.871-8.867v-8.48h11.79c5.374 0 9.75-4.376 9.75-9.75v-5.344a9.676 9.676 0 0 0-2.083-6 9.687 9.687 0 0 0 2.082-6.004v-5.344c0-4.258-2.75-7.879-6.562-9.203v-15.98c0-6.153 3.144-11.801 8.41-15.106 19.226-12.074 31.883-31.863 34.723-54.297a3.748 3.748 0 0 0-3.246-4.191Zm-62.363 139.695c0 .742-.625 1.371-1.367 1.371h-15.5a1.387 1.387 0 0 1-1.367-1.371v-8.477h18.234Zm21.54-18.227c0 1.22-1.028 2.25-2.25 2.25H99.593c-1.223 0-2.25-1.03-2.25-2.25v-5.343c0-1.223 1.027-2.25 2.25-2.25h56.812c1.223 0 2.25 1.027 2.25 2.25Zm0-17.347c0 1.222-1.028 2.25-2.25 2.25H99.593c-1.223 0-2.25-1.028-2.25-2.25v-5.344c0-1.219 1.027-2.25 2.25-2.25h56.812c1.223 0 2.25 1.031 2.25 2.25Zm0 0"/></svg>