<svg xmlns="http://www.w3.org/2000/svg" viewBox="0 0 512 512" xml:space="preserve" fill="#fff"><path d="M503.467 341.333H392.533V231.612a93.125 93.125 0 0 0-17.067-53.862v-42.667a25.411 25.411 0 0 0-7.501-18.108l-15.599-15.599a25.41 25.41 0 0 0-18.108-7.509H293.47a93.152 93.152 0 0 0-64.282-25.6h-67.055C72.63 68.365.099 140.897 0 230.4v102.4c.071 61.238 49.696 110.863 110.933 110.933h230.4c24.957-.046 46.252-18.062 50.432-42.667h103.168v25.6c0 4.713 3.82 8.533 8.533 8.533s8.533-3.82 8.533-8.533v-76.8a8.532 8.532 0 0 0-8.532-8.533zm-169.208-230.4a8.535 8.535 0 0 1 6.042 2.5l15.599 15.599a8.535 8.535 0 0 1 2.5 6.042V158.6l-47.667-47.667h23.526zm41.208 281.652c-.028 18.831-15.302 34.082-34.133 34.082h-230.4c-51.816-.061-93.806-42.051-93.867-93.867V230.4c.089-80.081 64.986-144.977 145.067-145.067h67.055a77.262 77.262 0 0 1 17.015 1.954l-18.97 52.164a8.533 8.533 0 0 1-8.021 5.615h-31.479c-63.326-.322-115.901 48.825-119.842 112.029-3.942 63.204 42.119 118.502 104.994 126.051 4.865.577 9.761.862 14.66.853 30 .053 58.919-11.202 80.99-31.522a9.095 9.095 0 0 1 6.093-2.56h100.838v42.668zm0-59.785H274.628a26.092 26.092 0 0 0-17.673 7.125c-33.737 31.008-83.966 35.829-122.985 11.804s-57.326-71.048-44.826-115.132c12.501-44.084 52.766-74.497 98.588-74.464h31.479a25.678 25.678 0 0 0 24.064-16.853l19.046-52.369a76.628 76.628 0 0 1 21.171 14.916l.606.606 68.872 68.873a76.295 76.295 0 0 1 22.494 54.306V332.8zM494.933 384h-102.4v-25.6h102.4V384z"/><path d="M187.733 196.267c-37.703 0-68.267 30.564-68.267 68.267s30.564 68.267 68.267 68.267S256 302.236 256 264.533c-.042-37.685-30.582-68.224-68.267-68.266zm0 119.466c-28.277 0-51.2-22.923-51.2-51.2s22.923-51.2 51.2-51.2 51.2 22.923 51.2 51.2c-.028 28.266-22.934 51.172-51.2 51.2z"/></svg>