<svg xmlns="http://www.w3.org/2000/svg" viewBox="0 0 512 512" xml:space="preserve" fill="#fff"><path d="M260.348 352.204a8.153 8.153 0 0 0-8.153 8.153v17.39c0 4.503 3.65 8.153 8.153 8.153s8.153-3.65 8.153-8.153v-17.39a8.153 8.153 0 0 0-8.153-8.153z"/><path d="M507.064 235.387a16.733 16.733 0 0 0-11.912-4.934h-.003l-20.929.003c-.265 0-.447-.298-.503-.574-5.753-28.218-18.654-54.82-37.31-76.932-18.032-21.372-41.127-38.18-66.88-48.737-4.154-17.536-12.925-35.616-30.222-49.207-16.746-13.158-33.612-15.69-34.321-15.792a8.15 8.15 0 0 0-9.306 8.071v44.026H266.09c-7.312-25.09-30.5-43.482-57.919-43.482-28.001 0-51.603 19.177-58.376 45.085-40.312 5.491-77.4 25.021-104.92 55.386C15.937 180.233 0 221.569 0 264.696c0 96.801 50.255 175.564 65.659 197.397 4.758 6.745 12.551 10.773 20.846 10.773h34.701c14.086 0 25.546-11.46 25.546-25.546v-11.285a175.194 175.194 0 0 0 26.633 2.045h78.811v9.24c0 14.086 11.46 25.546 25.546 25.546h38.117c11.966 0 22.471-8.493 24.978-20.193l4.184-19.524c53.584-13.049 96.667-50.641 117.872-99.424h32.258c9.291 0 16.849-7.558 16.849-16.849v-69.572c0-4.503-1.752-8.734-4.936-11.917zM208.17 64.136c24.276 0 44.025 19.75 44.025 44.026a44.061 44.061 0 0 1-3.833 17.936h-80.385a44.084 44.084 0 0 1-3.833-17.936c0-24.277 19.75-44.026 44.026-44.026zm287.524 252.738c0 .3-.243.544-.544.544h-26.128a172.57 172.57 0 0 0 7.956-43.604 8.152 8.152 0 0 0-7.72-8.564c-4.497-.228-8.331 3.223-8.564 7.72-3.454 66.592-48.778 123.449-111.832 142.252l11.391-53.155a8.152 8.152 0 0 0-6.264-9.68c-4.4-.946-8.737 1.861-9.68 6.264l-19.416 90.604c-.907 4.232-4.707 7.304-9.034 7.304H277.74c-5.095 0-9.24-4.145-9.24-9.24v-34.786c0-4.503-3.65-8.153-8.153-8.153s-8.153 3.65-8.153 8.153v9.24h-78.811c-8.945 0-17.874-.769-26.633-2.262v-59.155c0-4.503-3.65-8.153-8.153-8.153s-8.153 3.65-8.153 8.153v86.964c0 5.095-4.145 9.24-9.24 9.24H86.505c-3.048 0-5.79-1.409-7.522-3.866-14.703-20.843-62.677-95.997-62.677-187.999 0-39.072 14.437-76.52 40.651-105.445 23.99-26.473 55.999-43.853 90.907-49.561a60.511 60.511 0 0 0 2.701 16.407h-3.27c-4.503 0-8.153 3.65-8.153 8.153s3.65 8.153 8.153 8.153h121.75c4.503 0 8.153-3.65 8.153-8.153s-3.65-8.153-8.153-8.153h-3.271a60.489 60.489 0 0 0 2.727-17.936c0-.183-.012-.362-.014-.544h27.19v17.936a8.153 8.153 0 0 0 8.153 8.153 8.153 8.153 0 0 0 8.153-8.153V57.99c15.469 5.854 44.569 23.835 44.569 76.26 0 4.503 3.65 8.153 8.153 8.153s8.153-3.65 8.153-8.153c0-3.454-.125-7.101-.411-10.87 19.667 9.58 37.311 23.272 51.498 40.087 16.9 20.031 28.586 44.123 33.795 69.673 1.609 7.895 8.541 13.624 16.483 13.623l20.929-.002c.055 0 .225 0 .384.159a.515.515 0 0 1 .159.384v69.57z"/><path d="M424.521 235.759c-5.06-13.576-18.455-22.698-33.327-22.698-14.873 0-28.266 9.121-33.329 22.698a8.152 8.152 0 0 0 4.791 10.487 8.15 8.15 0 0 0 10.487-4.791c2.696-7.23 9.95-12.088 18.05-12.088s15.355 4.858 18.05 12.088a8.154 8.154 0 0 0 7.64 5.307 8.153 8.153 0 0 0 7.638-11.003zM216.323 258.479v-41.664c15.994 1.944 27.176 9.354 27.176 16.085a8.153 8.153 0 0 0 8.153 8.153 8.153 8.153 0 0 0 8.153-8.153c0-16.668-18.534-30.069-43.482-32.49v-.937c0-4.503-3.65-8.153-8.153-8.153s-8.153 3.65-8.153 8.153v.937c-24.948 2.421-43.482 15.822-43.482 32.49 0 23.807 23.52 32.399 43.482 38.013v41.664c-15.994-1.944-27.176-9.354-27.176-16.085 0-4.503-3.65-8.153-8.153-8.153s-8.153 3.65-8.153 8.153c0 16.668 18.534 30.069 43.482 32.49v.937c0 4.503 3.65 8.153 8.153 8.153s8.153-3.65 8.153-8.153v-.937c24.948-2.421 43.482-15.822 43.482-32.49 0-23.808-23.521-32.399-43.482-38.013zm-16.306-4.636c-20.08-6.299-27.176-12.023-27.176-20.943 0-6.731 11.182-14.141 27.176-16.085v37.028zm16.306 58.735V275.55c20.08 6.298 27.176 12.023 27.176 20.943 0 6.731-11.183 14.141-27.176 16.085z"/></svg>