<svg xmlns="http://www.w3.org/2000/svg" xmlns:xlink="http://www.w3.org/1999/xlink" version="1.1" id="Capa_1" x="0px" y="0px" viewBox="0 0 512 512" xml:space="preserve" fill-opacity="1" type="solidColor" fill="#ffffff">
<g id="g-2">
	<g id="g-3">
		<g id="g-4">
			<path d="M503.467,341.333H392.533V231.612c0.026-19.288-5.937-38.109-17.067-53.862v-42.667     c0.022-6.796-2.68-13.318-7.501-18.108l-15.599-15.599c-4.789-4.824-11.31-7.529-18.108-7.509H293.47     c-17.346-16.47-40.362-25.636-64.282-25.6h-67.055C72.63,68.365,0.099,140.897,0,230.4v102.4     c0.071,61.238,49.696,110.863,110.933,110.933h230.4c24.957-0.046,46.252-18.062,50.432-42.667h103.168v25.6     c0,4.713,3.82,8.533,8.533,8.533s8.533-3.82,8.533-8.533v-76.8C512,345.154,508.18,341.333,503.467,341.333z M334.259,110.933     c2.266-0.002,4.44,0.898,6.042,2.5l15.599,15.599c1.602,1.602,2.502,3.776,2.5,6.042v23.526l-47.667-47.667H334.259z      M375.467,392.585c-0.028,18.831-15.302,34.082-34.133,34.082h-230.4c-51.816-0.061-93.806-42.051-93.867-93.867V230.4     c0.089-80.081,64.986-144.977,145.067-145.067h67.055c5.727,0.019,11.434,0.674,17.015,1.954l-18.97,52.164     c-1.227,3.372-4.433,5.616-8.021,5.615h-31.479c-63.326-0.322-115.901,48.825-119.842,112.029     c-3.942,63.204,42.119,118.502,104.994,126.051c4.865,0.577,9.761,0.862,14.66,0.853c30,0.053,58.919-11.202,80.99-31.522     c1.638-1.587,3.813-2.501,6.093-2.56h100.838V392.585z M375.467,332.8H274.628c-6.579,0.062-12.891,2.607-17.673,7.125     c-33.737,31.008-83.966,35.829-122.985,11.804s-57.326-71.048-44.826-115.132c12.501-44.084,52.766-74.497,98.588-74.464h31.479     c10.76-0.021,20.366-6.748,24.064-16.853l19.046-52.369c7.852,3.735,15.012,8.779,21.171,14.916l0.606,0.606l68.872,68.873     c14.45,14.371,22.55,33.926,22.494,54.306V332.8z M494.933,384h-102.4v-25.6h102.4V384z" id="path-5"></path>
			<path d="M187.733,196.267c-37.703,0-68.267,30.564-68.267,68.267s30.564,68.267,68.267,68.267S256,302.236,256,264.533     C255.958,226.848,225.418,196.309,187.733,196.267z M187.733,315.733c-28.277,0-51.2-22.923-51.2-51.2s22.923-51.2,51.2-51.2     s51.2,22.923,51.2,51.2C238.905,292.799,215.999,315.705,187.733,315.733z" id="path-6"></path>
		</g>
	</g>
</g>
<g id="g-7">
</g>
<g id="g-8">
</g>
<g id="g-9">
</g>
<g id="g-10">
</g>
<g id="g-11">
</g>
<g id="g-12">
</g>
<g id="g-13">
</g>
<g id="g-14">
</g>
<g id="g-15">
</g>
<g id="g-16">
</g>
<g id="g-17">
</g>
<g id="g-18">
</g>
<g id="g-19">
</g>
<g id="g-20">
</g>
<g id="g-21">
</g>
</svg>