<svg xmlns="http://www.w3.org/2000/svg" height="512pt" viewBox="-6 0 512 512.00058" width="512pt" id="svg-1" fill-opacity="1" type="solidColor" fill="#ffffff"><path d="m433.433594 71.066406-49.433594 49.433594v-77.832031c-.027344-23.554688-19.113281-42.6406252-42.667969-42.667969h-298.664062c-23.554688.0273438-42.6406252 19.113281-42.667969 42.667969v34.132812c0 4.710938 3.820312 8.53125 8.535156 8.53125h59.730469v375.46875c.03125 28.265625 22.9375 51.171875 51.203125 51.199219h298.664062c28.265626-.027344 51.171876-22.933594 51.199219-51.199219v-25.601562c0-4.710938-3.820312-8.53125-8.53125-8.53125h-76.800781v-196.703125l104.167969-104.167969c15.113281-15.113281 15.113281-39.617187 0-54.730469-15.113281-15.113281-39.621094-15.113281-54.734375 0zm-365.167969-2.800781h-51.199219v-25.597656c0-14.140625 11.460938-25.601563 25.601563-25.601563 14.136719 0 25.597656 11.460938 25.597656 25.601563zm85.335937 366.933594v25.601562c0 18.851563-15.28125 34.132813-34.132812 34.132813s-34.136719-15.28125-34.136719-34.132813v-418.132812c-.03125-9.265625-3.105469-18.257813-8.753906-25.601563h264.753906c14.140625 0 25.601563 11.460938 25.601563 25.601563v94.898437l-116.964844 116.964844c-.085938.085938-.113281.195312-.1875.28125-.648438.691406-1.171875 1.484375-1.554688 2.347656 0 .09375-.113281.179688-.152343.28125l-.070313.128906-25.597656 68.265626c-1.664062 4.410156.566406 9.332031 4.976562 10.992187 1.941407.730469 4.082032.730469 6.019532 0l68.269531-25.601563.125-.066406c.09375 0 .179687-.105468.273437-.15625.863282-.378906 1.660157-.90625 2.347657-1.550781.085937-.078125.195312-.105469.28125-.1875l62.234375-62.234375v179.632812h-204.800782c-4.710937.003907-8.53125 3.824219-8.53125 8.535157zm105.734376-159.222657 23.894531 23.894532-38.273438 14.34375zm192.929687 167.757813v17.066406c0 18.851563-15.28125 34.132813-34.132813 34.132813h-260.53125c8.421876-9.375 13.074219-21.53125 13.066407-34.132813v-17.066406zm-153.597656-152.570313-30.601563-30.597656 128.734375-128.734375 30.601563 30.601563zm140.800781-140.796874-30.601562-30.601563 13.53125-13.535156 30.601562 30.601562zm36.632812-36.632813-11.035156 11.03125-30.597656-30.601563 11.03125-11.03125c8.585938-8.316406 22.285156-8.101562 30.601562.480469 8.128907 8.394531 8.128907 21.726563 0 30.121094zm0 0" id="path-2"></path><path d="m119.46875 375.464844h59.730469v17.070312h-59.730469zm0 0" id="path-3"></path><path d="m119.46875 307.199219h85.332031v17.066406h-85.332031zm0 0" id="path-4"></path><path d="m119.46875 238.933594h76.796875v17.066406h-76.796875zm0 0" id="path-5"></path><path d="m153.601562 170.667969h136.53125v17.066406h-136.53125zm0 0" id="path-6"></path><path d="m213.332031 238.933594h17.070313v17.066406h-17.070313zm0 0" id="path-7"></path><path d="m119.46875 170.667969h17.066406v17.066406h-17.066406zm0 0" id="path-8"></path><path d="m298.667969 375.464844h17.066406v17.070312h-17.066406zm0 0" id="path-9"></path><path d="m196.265625 375.464844h85.335937v17.070312h-85.335937zm0 0" id="path-10"></path><path d="m221.867188 34.132812h17.066406v17.066407h-17.066406zm0 0" id="path-11"></path><path d="m221.867188 119.464844h17.066406v17.070312h-17.066406zm0 0" id="path-12"></path><path d="m188.167969 55.171875 12.066406-12.070313 12.066406 12.070313-12.066406 12.066406zm0 0" id="path-13"></path><path d="m248.492188 115.5 12.066406-12.066406 12.070312 12.066406-12.070312 12.070312zm0 0" id="path-14"></path><path d="m179.199219 76.800781h17.066406v17.066407h-17.066406zm0 0" id="path-15"></path><path d="m264.535156 76.800781h17.066406v17.066407h-17.066406zm0 0" id="path-16"></path><path d="m188.160156 115.503906 12.066406-12.070312 12.070313 12.070312-12.070313 12.066406zm0 0" id="path-17"></path><path d="m248.5 55.167969 12.066406-12.066407 12.066406 12.066407-12.066406 12.070312zm0 0" id="path-18"></path></svg>